<?xml version="1.0" encoding="UTF-8"?>
<svg width="134px" height="52px" viewBox="0 0 134 52" version="1.1" xmlns="http://www.w3.org/2000/svg" xmlns:xlink="http://www.w3.org/1999/xlink">
    <!-- Generator: Sketch 55.2 (78181) - https://sketchapp.com -->
    <title>LOGO</title>
    <desc>Created with Sketch.</desc>
    <g id="Symbols" stroke="none" stroke-width="1" fill="none" fill-rule="evenodd">
        <g id="Module/menu/simple" transform="translate(-78.000000, -78.000000)" fill="#FFFFFF">
            <path d="M192.629739,118.569518 C192.834544,118.467515 192.629739,118.244719 192.581232,118.142716 L187.315583,111.786326 L187.164673,111.711166 L181.462465,118.338669 C181.416654,118.416513 181.492108,118.467515 181.546004,118.518516 L186.24305,118.518516 L186.24305,128.804701 L162.472172,128.804701 L162.472172,120.260618 L162.28084,120.260618 C159.720775,126.007675 153.70058,130.21932 147.343534,129.991156 C144.28493,129.991156 141.619767,128.804701 139.110904,127.392767 L138.989637,127.618247 L138.989637,128.756384 L138.784832,128.831544 L127.900513,128.780543 L127.849312,128.504061 L127.800805,113.072099 L127.746909,113.021098 C126.935773,114.736357 126.280935,116.577777 125.216487,118.217876 C119.948142,127.169971 110.128272,130.723966 100.130544,129.642199 C91.7227508,128.933547 83.7218735,122.802637 80.3048603,115.066524 C76.583334,106.723762 77.2678146,95.2484378 83.0939839,88.0652875 C89.3432376,79.8970042 99.446063,76.5416463 109.344083,78.5843882 C111.928402,79.164194 114.404928,80.19496 116.711681,81.4807331 L116.711681,81.3062545 C116.762882,80.5466015 116.533824,79.8191599 116.711681,79.1105083 L126.326747,79.1105083 L126.326747,95.4766021 L114.127363,95.3960736 C110.987915,91.162954 106.051031,89.4503793 100.912037,90.553621 C96.0021017,91.4635941 91.5179455,96.1557266 90.7121987,101.046496 C89.6746987,106.619075 91.954504,112.01449 96.6084329,115.21416 C100.278758,117.989712 106.204635,118.091715 110.025869,115.595328 C112.001161,114.408874 113.798597,112.366132 114.962752,110.45492 L115.240317,110.377076 L131.139669,110.347548 L131.390286,110.377076 L140.687365,110.45492 L140.787073,110.524711 C141.191293,113.251946 141.088891,116.17245 142.961781,118.290352 C143.975027,119.227168 145.441002,119.503649 146.885417,119.227168 C148.456489,118.999003 150.076067,117.635386 150.534184,116.073131 C150.989606,114.438401 150.534184,112.669456 149.367333,111.509844 C148.43493,110.578397 147.265385,110.124753 146.128177,109.617423 C139.900482,107.448519 132.255319,104.825971 129.851552,97.6428212 C127.975968,91.4125926 130.177624,84.8870925 135.343566,81.0029302 C139.544767,77.8220508 146.4273,76.8664449 151.164768,79.6151541 L152.557983,80.5224429 C152.784346,80.4982843 152.684638,80.2218028 152.711586,80.0446399 L152.784346,78.7078653 C155.797139,78.7320239 159.138697,78.6058625 162.102983,78.7078653 L162.076035,95.5490779 L162.027529,95.6510808 L151.568989,95.6000793 C150.962658,93.1278516 151.13782,90.0033423 148.456489,88.6907263 C146.963567,88.135079 144.91282,88.0867618 143.721716,89.297375 C142.581813,90.2798238 142.129086,91.6890741 142.382397,93.2056959 C142.608761,95.2484378 144.608307,96.534211 146.408437,97.0630154 C150.30243,98.5232671 154.32847,99.5862445 157.718535,102.257109 C162.784769,105.837947 164.735808,111.888329 163.11623,117.836707 C163.038081,117.987027 162.984185,118.166875 163.013828,118.338669 L163.264444,118.518516 L166.837756,118.518516 L174.024802,110.301916 L180.179738,103.212715 L179.212303,101.953785 L168.303731,88.9967349 L165.12925,88.969892 L165.12925,78.9038182 L186.469414,78.9038182 L186.469414,89.0450521 C185.275615,89.1712135 184.124933,88.9430492 182.98503,89.1470549 L183.087433,89.4503793 C184.58305,91.2139554 185.973569,93.0043744 187.469186,94.6927905 L187.873407,94.3921505 C189.339381,92.6768915 191.007466,90.9857911 192.403375,89.1980564 C191.112563,89.0182092 189.794804,89.1980564 188.506687,89.0450521 L188.53094,78.9038182 L212,78.9038182 L211.924545,89.1202121 L211.849091,89.1980564 L206.936461,89.2463735 L194.580778,103.392563 L194.602336,103.644885 L206.984967,118.569518 L211.781721,118.569518 L211.781721,128.804701 L188.479739,128.804701 L188.45818,118.569518 L192.629739,118.569518 Z" id="LOGO"></path>
        </g>
    </g>
</svg>